<mxfile host="Electron" modified="2024-02-03T02:53:31.145Z" agent="Mozilla/5.0 (Macintosh; Intel Mac OS X 10_15_7) AppleWebKit/537.36 (KHTML, like Gecko) draw.io/23.0.2 Chrome/120.0.6099.109 Electron/28.1.0 Safari/537.36" etag="aQ64wtd4SmgQLUkaBjiB" version="23.0.2" type="device">
  <diagram name="第 1 页" id="ifZ0s6YNjR_EOJT7U4fQ">
    <mxGraphModel dx="954" dy="674" grid="1" gridSize="10" guides="1" tooltips="1" connect="1" arrows="1" fold="1" page="1" pageScale="1" pageWidth="827" pageHeight="1169" math="0" shadow="0">
      <root>
        <mxCell id="0" />
        <mxCell id="1" parent="0" />
        <mxCell id="_h64W6ZZMjG37-iBjast-1" value="&lt;font style=&quot;font-size: 20px;&quot; face=&quot;Times New Roman&quot;&gt;A&lt;/font&gt;" style="ellipse;whiteSpace=wrap;html=1;aspect=fixed;strokeWidth=0.5;" parent="1" vertex="1">
          <mxGeometry x="160" y="80" width="40" height="40" as="geometry" />
        </mxCell>
        <mxCell id="_h64W6ZZMjG37-iBjast-2" value="&lt;font style=&quot;font-size: 20px;&quot; face=&quot;Times New Roman&quot;&gt;C&lt;/font&gt;" style="ellipse;whiteSpace=wrap;html=1;aspect=fixed;strokeWidth=0.5;" parent="1" vertex="1">
          <mxGeometry x="240" y="160" width="40" height="40" as="geometry" />
        </mxCell>
        <mxCell id="_h64W6ZZMjG37-iBjast-3" value="&lt;font style=&quot;font-size: 20px;&quot; face=&quot;Times New Roman&quot;&gt;B&lt;/font&gt;" style="ellipse;whiteSpace=wrap;html=1;aspect=fixed;strokeWidth=0.5;" parent="1" vertex="1">
          <mxGeometry x="320" y="80" width="40" height="40" as="geometry" />
        </mxCell>
        <mxCell id="_h64W6ZZMjG37-iBjast-4" value="&lt;font style=&quot;font-size: 20px;&quot; face=&quot;Times New Roman&quot;&gt;D&lt;/font&gt;" style="ellipse;whiteSpace=wrap;html=1;aspect=fixed;strokeWidth=0.5;" parent="1" vertex="1">
          <mxGeometry x="160" y="240" width="40" height="40" as="geometry" />
        </mxCell>
        <mxCell id="_h64W6ZZMjG37-iBjast-5" value="&lt;font style=&quot;font-size: 20px;&quot; face=&quot;Times New Roman&quot;&gt;E&lt;/font&gt;" style="ellipse;whiteSpace=wrap;html=1;aspect=fixed;strokeWidth=0.5;" parent="1" vertex="1">
          <mxGeometry x="320" y="240" width="40" height="40" as="geometry" />
        </mxCell>
        <mxCell id="_h64W6ZZMjG37-iBjast-6" value="" style="endArrow=classic;html=1;rounded=0;strokeWidth=0.5;" parent="1" source="_h64W6ZZMjG37-iBjast-1" target="_h64W6ZZMjG37-iBjast-2" edge="1">
          <mxGeometry width="50" height="50" relative="1" as="geometry">
            <mxPoint x="260" y="210" as="sourcePoint" />
            <mxPoint x="310" y="160" as="targetPoint" />
          </mxGeometry>
        </mxCell>
        <mxCell id="_h64W6ZZMjG37-iBjast-7" value="" style="endArrow=classic;html=1;rounded=0;strokeWidth=0.5;" parent="1" source="_h64W6ZZMjG37-iBjast-2" target="_h64W6ZZMjG37-iBjast-5" edge="1">
          <mxGeometry width="50" height="50" relative="1" as="geometry">
            <mxPoint x="260" y="210" as="sourcePoint" />
            <mxPoint x="310" y="160" as="targetPoint" />
          </mxGeometry>
        </mxCell>
        <mxCell id="_h64W6ZZMjG37-iBjast-8" value="" style="endArrow=classic;html=1;rounded=0;strokeWidth=0.5;" parent="1" source="_h64W6ZZMjG37-iBjast-1" target="_h64W6ZZMjG37-iBjast-4" edge="1">
          <mxGeometry width="50" height="50" relative="1" as="geometry">
            <mxPoint x="260" y="210" as="sourcePoint" />
            <mxPoint x="310" y="160" as="targetPoint" />
          </mxGeometry>
        </mxCell>
        <mxCell id="_h64W6ZZMjG37-iBjast-10" value="" style="endArrow=classic;html=1;rounded=0;strokeWidth=0.5;" parent="1" source="_h64W6ZZMjG37-iBjast-4" target="_h64W6ZZMjG37-iBjast-5" edge="1">
          <mxGeometry width="50" height="50" relative="1" as="geometry">
            <mxPoint x="260" y="210" as="sourcePoint" />
            <mxPoint x="310" y="160" as="targetPoint" />
          </mxGeometry>
        </mxCell>
        <mxCell id="_h64W6ZZMjG37-iBjast-11" value="" style="endArrow=classic;html=1;rounded=0;strokeWidth=0.5;" parent="1" source="_h64W6ZZMjG37-iBjast-3" target="_h64W6ZZMjG37-iBjast-5" edge="1">
          <mxGeometry width="50" height="50" relative="1" as="geometry">
            <mxPoint x="260" y="210" as="sourcePoint" />
            <mxPoint x="470" y="190" as="targetPoint" />
          </mxGeometry>
        </mxCell>
        <mxCell id="_h64W6ZZMjG37-iBjast-12" value="" style="endArrow=classic;html=1;rounded=0;strokeWidth=0.5;" parent="1" source="_h64W6ZZMjG37-iBjast-1" target="_h64W6ZZMjG37-iBjast-3" edge="1">
          <mxGeometry width="50" height="50" relative="1" as="geometry">
            <mxPoint x="260" y="210" as="sourcePoint" />
            <mxPoint x="310" y="160" as="targetPoint" />
          </mxGeometry>
        </mxCell>
        <mxCell id="_h64W6ZZMjG37-iBjast-16" value="&lt;font style=&quot;font-size: 20px;&quot; face=&quot;Times New Roman&quot;&gt;1&lt;/font&gt;" style="text;html=1;align=center;verticalAlign=middle;resizable=0;points=[];autosize=1;strokeColor=none;fillColor=none;strokeWidth=0.5;" parent="1" vertex="1">
          <mxGeometry x="284" y="185" width="30" height="40" as="geometry" />
        </mxCell>
        <mxCell id="_h64W6ZZMjG37-iBjast-19" value="&lt;font style=&quot;font-size: 20px;&quot; face=&quot;Times New Roman&quot;&gt;1&lt;/font&gt;" style="text;html=1;align=center;verticalAlign=middle;resizable=0;points=[];autosize=1;strokeColor=none;fillColor=none;strokeWidth=0.5;" parent="1" vertex="1">
          <mxGeometry x="204" y="106" width="30" height="40" as="geometry" />
        </mxCell>
        <mxCell id="_h64W6ZZMjG37-iBjast-20" value="&lt;font style=&quot;font-size: 20px;&quot; face=&quot;Times New Roman&quot;&gt;4&lt;/font&gt;" style="text;html=1;align=center;verticalAlign=middle;resizable=0;points=[];autosize=1;strokeColor=none;fillColor=none;strokeWidth=0.5;" parent="1" vertex="1">
          <mxGeometry x="244" y="70" width="30" height="40" as="geometry" />
        </mxCell>
        <mxCell id="_h64W6ZZMjG37-iBjast-21" value="&lt;font style=&quot;font-size: 20px;&quot; face=&quot;Times New Roman&quot;&gt;1&lt;/font&gt;" style="text;html=1;align=center;verticalAlign=middle;resizable=0;points=[];autosize=1;strokeColor=none;fillColor=none;strokeWidth=0.5;" parent="1" vertex="1">
          <mxGeometry x="157" y="160" width="30" height="40" as="geometry" />
        </mxCell>
        <mxCell id="_h64W6ZZMjG37-iBjast-22" value="&lt;font style=&quot;font-size: 20px;&quot; face=&quot;Times New Roman&quot;&gt;-5&lt;/font&gt;" style="text;html=1;align=center;verticalAlign=middle;resizable=0;points=[];autosize=1;strokeColor=none;fillColor=none;strokeWidth=0.5;" parent="1" vertex="1">
          <mxGeometry x="332" y="160" width="40" height="40" as="geometry" />
        </mxCell>
        <mxCell id="_h64W6ZZMjG37-iBjast-23" value="&lt;font style=&quot;font-size: 20px;&quot; face=&quot;Times New Roman&quot;&gt;1&lt;/font&gt;" style="text;html=1;align=center;verticalAlign=middle;resizable=0;points=[];autosize=1;strokeColor=none;fillColor=none;strokeWidth=0.5;" parent="1" vertex="1">
          <mxGeometry x="245" y="229" width="30" height="40" as="geometry" />
        </mxCell>
      </root>
    </mxGraphModel>
  </diagram>
</mxfile>
